<svg xmlns="http://www.w3.org/2000/svg" pointer-events="none" class="leaflet-zoom-animated" width="1062" height="652" viewBox="-88 -54 1062 652" style="transform: translate3d(-88px, -54px, 0px);"><g><path class="leaflet-interactive" stroke="#201920" stroke-opacity="1" stroke-width="2" stroke-linecap="round" stroke-linejoin="round" fill="none" d="M271 241L269 237L272 234L271 233L275 229L277 229L277 227L278 228L281 226L282 229L286 229L289 223L294 224L294 222L295 223L301 218L308 215L308 208L311 207L308 195L305 194L310 191L311 192L315 190L321 190L319 186L324 174L329 177L338 176L338 166L345 162L345 158L351 158L350 161L352 161L352 163L354 165L355 164L356 167L363 169L366 172L369 179L367 189L370 192L371 191L376 193L384 193L391 199L394 198L393 199L399 211L425 211L441 218L445 217L446 219L461 213L473 213L478 211L488 202L485 199L486 194L488 192L497 195L504 189L507 190L510 188L514 182L518 182L524 178L528 178L527 179L528 178L530 180L533 179L532 174L526 168L523 167L519 171L517 169L513 169L511 171L508 167L510 166L515 152L521 155L525 151L530 150L530 144L534 136L538 132L538 128L534 126L539 120L540 121L547 118L555 118L561 122L564 121L568 125L570 129L569 130L571 132L570 133L573 138L572 139L576 145L575 148L577 148L576 151L578 154L583 154L591 160L593 160L595 164L594 167L597 171L601 171L613 165L619 164L617 166L617 172L614 173L615 175L613 183L610 186L608 192L607 193L601 190L597 194L597 209L595 209L593 211L594 212L590 208L589 213L587 213L584 216L580 216L581 219L579 221L574 220L575 219L572 218L571 221L566 226L564 226L565 227L564 226L559 230M299 288L297 284L298 283L300 285L302 283L302 281L299 278L299 274L301 272L296 270L296 264L290 264L287 261L285 261L283 259L283 255L275 253L275 251L277 252M459 352L457 350L458 347L453 346L450 343L442 349L440 347L437 349L435 347L433 347L433 349L429 349L429 357L427 357L426 353L422 355L420 351L416 351L415 350L417 346L414 345L412 341L412 339L414 339L406 339L407 332L411 328L413 328L413 318L411 316L410 317L409 312L406 311L403 316L399 312L395 312L383 321L375 321L374 317L372 317L371 314L368 315L369 314L360 313L358 319L356 317L357 314L346 315L344 313L341 314L342 313L340 315L339 312L335 312L336 310L331 309L329 305L326 306L316 298L314 298L313 301L304 294L300 294L299 288M465 354L459 352M467 446L467 440M473 387L476 393M479 410L477 416M487 461L493 459M508 439L512 434M525 418L528 411M528 388L528 395M534 370L531 376M545 354L540 359M548 343L550 335"/><path class="leaflet-interactive" stroke="#201920" stroke-opacity="1" stroke-width="2" stroke-linecap="butt" stroke-linejoin="round" stroke-dasharray="4,4" stroke-dashoffset="4" fill="none" d="M277 252L279 250L277 248L277 242L271 241"/><path class="leaflet-interactive" stroke="gray" stroke-opacity="1" stroke-width="1" stroke-linecap="round" stroke-linejoin="round" stroke-dasharray="8,4,4,4" fill="none" d="M497 350L497 350M501 348L499 350L501 351L501 348"/><path class="leaflet-interactive" stroke="#4190da" stroke-opacity="1" stroke-width="1" stroke-linecap="round" stroke-linejoin="round" fill="none" d="M500 349L498 347L498 349L495 352L494 351L494 353L488 353L486 355L478 357L480 361L478 363L476 363L475 354L465 354M479 357L479 357M479 357L480 358L478 358L479 357M497 350L497 350M500 349L500 349M500 349L500 349M500 349L500 349M533 322L531 326L531 330L533 330L529 330L530 331L528 331L528 333L525 336L523 336L523 338L519 342L517 342L512 347L509 346L509 348L504 347L502 348L503 349L501 349L502 350L500 349M533 322L533 322M544 307L543 306L543 312L541 314L540 313L540 315L537 317L538 318L533 322M542 255L539 256L537 260L534 259L535 260L529 268L536 273L539 280L539 284L541 284L542 287L544 287L545 290L539 289L541 291M541 291L544 292L546 297L540 297L545 302L545 306M542 255L542 255M542 255L542 255M547 236L540 241L540 239L543 238L541 234L546 229L544 225L540 225L537 228L537 230L531 232L530 235L527 238L528 237L525 238L526 239L522 237L520 241L520 243L522 243L525 246L528 245L530 247L528 249L529 252L533 252L533 250L537 247L539 247L542 250L545 249L549 251L548 254L545 253L542 255M542 255L543 254L542 255M544 307L544 307M544 307L544 307M544 307L544 307M545 306L544 307M545 306L545 306M546 301L546 301M546 301L546 301M546 301L546 301M547 301L546 301M546 301L545 300L547 301M547 301L547 301M547 299L547 299M547 299L547 299M547 236L547 236M559 230L556 233L552 233L547 236M548 296L548 296M548 296L548 296M549 296L549 296M470 354L470 354M472 358L472 358M474 364L474 364M474 438L477 437L474 438M474 375L469 372L469 368L473 364L474 365L480 363L483 365L480 371L474 375M476 435L476 435M479 360L479 360M479 357L479 357M479 435L480 436L479 435M479 434L480 433L479 434M480 357L480 357M480 362L480 362M480 434L480 434M480 358L480 358M484 389L484 389M485 381L485 381M485 431L485 431M485 385L485 385M485 427L485 427M486 437L486 437M486 435L486 435M486 385L486 385M486 385L486 385M486 435L486 435M486 386L486 386M486 430L487 431L486 430M486 384L486 384M486 436L486 436M486 384L486 384M487 387L486 386L487 387M487 385L487 385M487 387L487 387M488 434L488 434M488 386L488 386M488 458L488 458M489 430L490 429L489 430M489 429L489 429M489 458L489 458M489 383L489 383M489 390L490 389L489 390M489 382L489 382M490 429L490 429M490 458L490 458M490 429L490 429M490 448L490 448M490 382L490 382M490 383L490 383M490 386L490 386M491 354L491 354M491 447L491 447M491 388L492 387L491 388M491 385L491 385M491 425L491 425M491 448L491 448M491 447L491 447M491 429L492 430L491 429M491 446L491 446M491 451L491 451M491 354L491 354M491 448L492 449L491 448M492 449L492 449M492 385L492 385M492 451L492 451M492 353L491 354L492 353M492 386L492 386M492 384L492 384M493 354L492 353L493 354M493 429L493 429M493 354L493 354M493 383L493 383M493 435L493 435M493 425L493 425M493 425L493 425M493 452L494 451L493 452M494 432L494 432M494 367L494 367M494 425L494 425M494 353L494 353M495 352L495 352M495 353L495 353M495 352L495 352M495 444L495 444M495 434L495 434M495 434L496 433L495 434M497 351L497 351M497 421L497 421M497 440L497 440M497 429L498 428L497 429M498 427L498 427M498 352L498 352M498 390L498 390M498 352L498 352M498 352L498 352M498 352L498 352M498 436L499 437L498 436M498 438L498 438M499 349L499 349M499 351L499 351M499 369L499 369M499 350L499 350M499 423L499 423M499 391L499 391M499 390L499 390M499 434L499 434M499 437L503 435L499 437M499 429L499 429M499 389L499 389M499 429L500 430L499 429M499 429L500 430L499 429M499 391L499 391M500 423L500 423M500 418L500 418M500 434L500 434M500 388L500 388M500 350L500 350M500 352L500 352M500 426L501 427L500 426M501 350L501 350M501 352L501 352M501 430L501 430M501 388L501 388M501 352L501 352M501 391L501 391M501 421L501 421M501 424L501 424M501 351L501 351M501 390L501 390M501 424L501 424M501 415L501 415M501 348L501 348M501 417L501 417M501 350L501 350M502 422L502 422M502 419L502 419M502 414L502 414M502 388L503 387L502 388M502 423L502 423M502 390L502 390M502 424L502 424M502 418L502 418M502 419L503 418L502 419M502 423L502 423M502 434L503 433L502 434M503 423L503 423M503 423L503 423M503 415L503 415M503 423L503 423M503 429L503 429M503 390L503 390M503 423L503 423M503 415L503 415M503 349L503 349M503 437L503 437M503 433L503 433M503 421L503 421M503 414L504 415L503 414M504 417L504 417M504 387L504 387M504 424L503 425L504 424M504 433L504 433M504 416L504 416M504 388L504 388M504 418L504 418M504 439L504 439M504 434L505 435L504 434M505 418L505 418M505 388L505 388M505 437L505 437M505 417L505 417M506 432L507 433L506 432M507 431L507 431M507 422L507 422M507 400L507 400M508 426L508 426M508 423L508 423M508 432L508 432M509 420L509 420M509 420L509 420M509 420L509 420M510 420L510 420M510 420L510 420M510 424L510 424M510 418L510 418M510 358L510 358M511 357L511 357M511 427L511 427M511 422L511 422M512 425L512 425M512 429L512 429M513 424L513 424M514 428L514 428M514 424L514 424M514 421L514 421M514 424L514 424M515 420L515 420M515 386L515 386M515 414L515 414M515 360L515 360M515 428L515 428M515 359L516 360L515 359M516 420L516 420M517 343L517 343M518 419L518 419M518 419L518 419M518 421L518 421M518 419L518 419M518 417L518 417M519 422L519 422M519 417L519 417M520 419L520 419M521 417L521 417M521 393L521 393M521 418L521 418M523 337L523 337M523 337L523 337M524 337L524 337M525 336L524 337L525 336M526 238L526 238M527 238L527 238M527 238L527 238M530 344L530 344M531 332L531 332M531 343L531 343M531 342L531 342M531 341L531 341M531 329L531 329M532 326L532 326M532 342L532 342M532 329L532 329M532 329L532 329M532 323L532 323M532 331L532 331M532 331L532 331M532 323L532 323M533 329L533 329M533 326L533 326M533 327L533 327M534 343L534 343M534 325L534 325M534 324L534 324M534 323L534 323M534 323L534 323M534 322L534 322M535 262L535 262M535 321L535 321M536 350L536 350M536 321L536 321M536 248L536 248M536 324L536 324M537 246L537 246M538 352L535 348L534 341L539 335L539 333L543 331L545 333L541 347L538 352M538 246L538 246M538 246L538 246M538 245L538 245M538 228L538 228M538 244L538 244M539 243L539 243M539 243L539 243M539 257L539 257M540 314L540 314M540 318L540 318M540 314L540 314M540 314L540 314M542 289L545 291L543 291L542 289M542 284L542 284M542 347L542 347M542 351L543 352L542 351M543 352L543 352M543 291L543 291M543 307L543 307M544 309L544 309M544 292L543 291L544 292M544 292L546 292L544 292M544 301L544 301M544 309L544 309M544 309L544 309M544 311L544 311M544 300L545 301L544 300M544 293L544 293M544 311L544 311M545 330L545 330M545 334L545 334M545 300L545 300M545 293L545 293M545 299L545 299M545 306L545 306M545 303L545 303M545 301L545 301M545 300L545 300M545 297L545 297M546 301L546 301M546 301L546 301M546 301L546 301M546 301L546 301M546 300L546 300M546 299L546 299M546 299L546 299M546 305L546 305M546 303L545 302L546 303M546 303L546 303M546 301L546 301M547 302L547 302M547 302L547 302M547 303L546 302L547 303M547 301L548 302L547 301M547 237L547 237M547 301L547 301M547 298L547 298M548 298L548 298M548 237L548 237M548 237L548 237M548 297L548 297M549 237L549 237M549 300L549 300M549 239L549 239M549 296L549 296M550 296L550 296M551 235L551 235M551 236L551 236M552 239L552 239M553 328L554 329L552 329L553 328M554 328L554 328M554 327L555 328L554 327M554 329L554 329M554 328L554 328M554 329L554 329M555 233L555 233M559 327L560 328L559 327"/><path class="leaflet-interactive" stroke="#747569" stroke-opacity="0.6" stroke-width="1" stroke-linecap="round" stroke-linejoin="round" fill="none" d="M361 260L359 258L348 257L342 259L338 263L335 262L330 265L323 264L323 262L315 266L309 264L306 267L306 269L304 271L300 271L301 272M407 284L405 284L405 286L402 287L403 288L401 288L401 290L399 288L399 290L396 290L394 286L393 287L393 285L389 283L385 285L374 282L372 280L366 280L362 276L363 275L361 275L361 260M377 238L364 242L364 244L366 244L366 248L370 251L370 253L367 254L367 256L369 256L369 260L363 258L363 260L361 260M430 277L429 278L429 276L428 277L424 273L432 273L433 272L431 268L433 264L436 263L435 264L437 260L434 253L435 252L431 248L426 247L421 242L421 244L418 243L413 238L409 240L404 237L402 239L403 242L401 242L401 244L398 245L396 243L390 243L388 240L386 241L380 237L377 238M399 211L397 213L398 217L396 217L393 220L393 218L391 218L384 226L380 227L376 237L377 238M444 250L439 247L439 243L444 239L442 235L437 238L432 237L432 239L428 241L425 238L425 236L417 232L421 229L420 225L418 224L413 227L410 227L410 224L406 221L408 219L404 210M415 306L414 296L412 293L413 292L411 290L410 285L407 284M430 277L429 280L426 279L427 282L425 284L421 284L420 281L418 283L415 280L413 280L411 274L408 273L405 276L407 278L405 282L407 284M409 313L413 312L412 309L414 309L415 306M450 316L449 313L445 315L444 310L442 310L442 312L439 313L440 316L436 318L437 325L434 324L430 326L424 314L422 316L420 314L421 313L419 309L417 309L416 312L415 311L415 306M451 282L449 284L446 283L444 281L444 277L440 275L439 276L437 272L435 272L435 274L432 275L434 277L431 280L430 277M463 247L457 243L460 238L458 236L453 240L452 248L444 250M444 250L446 250L446 252L447 251L450 254L450 262L451 261L456 266L456 262L459 261L459 259L456 256L458 254L457 253L461 252M450 316L450 318L445 317L440 320L441 323L446 324L444 328L447 331L446 335M446 335L446 337L447 336L450 339L451 338L455 340L455 342L451 344M474 327L471 328L471 330L470 329L465 332L463 332L460 329L460 331L454 335L451 333L446 335M456 311L454 309L452 311L456 314L454 316L450 316M461 252L461 254L469 258L469 264L465 266L464 265L463 268L458 267L456 271L458 271L456 275L457 276L454 277L454 281L451 282M468 286L465 287L462 284L461 285L459 283L456 284L454 282L451 282M473 311L471 313L467 309L467 307L464 308L464 306L462 306L462 308L460 308L457 311L457 309L456 311M456 311L456 309L450 305L450 303L453 302L451 300L453 298L455 300L458 299L458 301L460 300L463 297L462 296L466 294L468 286M461 252L463 247M483 236L483 234L480 237L478 235L478 237L476 237L475 240L471 243L472 246L470 246L470 248L467 249L463 247M468 286L474 290M474 290L477 291L478 294L473 298L470 297L467 302L469 302L471 304L470 305L472 305L472 307M472 307L473 311M499 307L497 303L494 305L493 302L491 304L487 301L486 302L482 300L479 303L476 302L472 307M474 327L473 319L470 320L474 316L473 311M488 335L486 335L485 332L483 334L482 333L485 328L484 325L482 325L483 324L478 327L474 327M482 279L474 279L476 281L475 282L478 283L474 285L474 290M476 355L475 355M476 355L475 354L485 346L485 342L488 339L488 335M476 363L477 363M477 363L479 363M479 270L479 254L481 250L480 245L482 243L482 239L484 237L483 236M479 270L480 274L483 277L482 279M479 270L488 267L488 265L493 266L497 264L498 258M479 362L480 362M507 292L500 289L498 285L488 285L482 279M483 280L483 280M500 226L497 229L491 229L488 232L488 234L483 236M488 335L489 332L493 334L495 330L499 330M508 259L505 260L498 258M498 258L497 255L500 248L497 241L500 238L502 238L503 235L502 232L499 231L502 229L500 226M512 302L508 302L504 304L505 305L501 305L499 307M499 330L501 326L499 326L499 318L497 318L497 316L501 312L499 307M499 330L504 331L500 335L501 336L505 336L507 334L509 336L510 333M529 221L528 222L523 219L524 216L521 211L517 213L515 217L509 217L506 220L503 215L499 221L500 226M512 270L512 272L514 272L515 275L512 276L508 274L509 277L507 277L505 281L506 284L510 284L511 287L507 292M512 302L510 298L511 295L507 292M522 244L519 247L515 247L512 251L511 250L511 252L507 256L508 259M512 270L508 270L508 268L504 266L511 260L507 262L508 259M510 333L512 327L515 324L514 321L518 319L517 316L525 312M518 342L516 340L516 336L510 333M523 305L518 302L516 304L514 300L514 302L512 302M513 270L512 270M530 267L529 266L523 272L522 269L518 271L516 267L513 268L513 270M532 293L528 293L524 287L527 284L528 285L529 282L528 281L524 283L523 279L522 280L523 277L513 270M519 230L519 226L517 226L514 223L514 225L513 224L514 225L512 225L512 227L509 228L510 229L508 233L510 235L516 234M520 241L517 242L515 240L516 234M516 234L516 234M516 234L518 234L518 231M518 231L515 232L516 234M518 342L518 343M519 230L518 231M519 343L519 344M519 230L521 232L519 232L521 235L522 234L522 237M523 305L527 303L527 299L529 299L530 296L531 297L532 293M523 305L522 306L525 309L525 312M536 320L536 318L532 318L532 316L530 318L527 317L527 313L525 312M529 221L529 215L531 213L534 218L542 212L543 213L545 211L552 210L555 206M533 231L531 227L527 225L529 221M539 294L537 296L532 293M538 320L538 320M538 243L540 243M545 290L540 289L541 290L539 294M541 296L539 296L539 294M541 296L542 296M553 177L551 179L547 173L550 170L552 170L552 168L554 168L558 163L558 165L560 165L559 164L561 158L564 157L563 152L567 146L568 141L564 136L562 136L563 137L560 139L552 139L549 135L550 130L546 128L544 130L541 127L544 122L542 120M543 296L543 296M544 296L545 296M545 296L546 295M547 295L548 295M549 295L549 295M598 205L593 204L593 200L585 204L582 201L582 197L580 197L579 200L576 197L577 196L573 194L574 193L572 191L569 192L566 189L558 189L556 186L556 182L552 183M552 183L551 180L554 179L553 177M552 183L549 186L550 187L548 185L543 186L546 189L546 197L548 199L552 197L551 198L555 206M553 177L552 176L553 177M553 177L553 177M553 177L553 177M555 206L556 205L559 208L559 210L561 208L565 216L564 219L566 221L566 225M453 264L453 264M474 322L474 322M493 302L493 302"/><path class="leaflet-interactive" stroke="#3388ff" stroke-opacity="0" stroke-width="3" stroke-linecap="round" stroke-linejoin="round" fill="#eee" fill-opacity="0.5" fill-rule="evenodd" d="M519 227L520 226L516 226L515 223L513 225L514 226L509 228L510 229L508 233L510 235L514 235L516 233L515 232L519 230L519 227z"/><path class="leaflet-interactive" stroke="#3388ff" stroke-opacity="0" stroke-width="3" stroke-linecap="round" stroke-linejoin="round" fill="#eee" fill-opacity="0.5" fill-rule="evenodd" d="M521 236L522 235L519 232L521 232L519 230L517 232L518 233L515 235L515 241L520 242L520 240L522 239L521 236zM521 236L521 236z"/><path class="leaflet-interactive" stroke="#3388ff" stroke-opacity="0" stroke-width="3" stroke-linecap="round" stroke-linejoin="round" fill="#eee" fill-opacity="0.5" fill-rule="evenodd" d="M519 226L518 229L521 232L519 232L524 239L526 239L525 238L527 238L533 231L531 227L527 225L529 221L528 222L523 219L524 216L521 211L517 213L515 217L509 217L506 220L503 215L501 217L499 223L501 229L503 229L500 231L499 230L502 233L502 235L503 234L502 237L498 239L499 240L497 244L500 247L500 249L498 255L496 255L499 258L507 260L507 256L511 251L522 244L520 242L515 241L516 234L508 234L508 232L511 229L510 228L514 226L513 225L515 223L516 226L519 226zM518 231L515 232L517 234L518 231zM521 236L521 236zM527 238L527 238z"/><path class="leaflet-interactive" stroke="#3388ff" stroke-opacity="0" stroke-width="3" stroke-linecap="round" stroke-linejoin="round" fill="#eee" fill-opacity="0.5" fill-rule="evenodd" d="M479 270L488 267L488 265L492 266L497 263L497 255L500 250L497 242L499 240L498 239L501 238L503 234L502 235L502 233L499 230L500 231L502 229L501 226L499 228L498 227L497 229L491 229L488 232L488 234L486 234L482 239L483 240L480 245L480 263L478 270z"/><path class="leaflet-interactive" stroke="#3388ff" stroke-opacity="0" stroke-width="3" stroke-linecap="round" stroke-linejoin="round" fill="#eee" fill-opacity="0.5" fill-rule="evenodd" d="M404 210L408 219L406 220L410 227L413 227L414 225L415 226L418 224L420 225L421 229L418 232L425 236L427 240L431 241L432 239L430 238L436 238L442 235L443 236L444 238L439 243L439 247L441 247L443 250L453 247L453 241L458 236L460 238L457 244L462 245L466 249L468 249L471 246L472 242L478 236L481 237L483 234L483 236L485 236L485 234L487 234L490 229L492 230L498 228L500 226L499 221L503 215L506 220L509 217L514 217L516 213L521 212L523 214L522 215L524 217L524 221L529 222L531 214L534 217L534 219L538 214L548 210L552 210L555 207L552 204L554 204L553 199L551 197L548 199L546 197L546 190L545 187L543 187L544 184L546 186L550 186L552 182L551 179L552 180L554 178L552 176L553 177L551 179L547 173L550 170L552 170L552 168L554 168L558 163L558 165L560 165L559 164L561 158L564 157L563 152L567 146L568 141L564 136L562 136L563 137L560 139L552 139L549 135L550 130L546 128L544 130L541 127L544 122L540 120L534 125L534 127L538 127L538 133L534 135L533 140L529 146L530 149L521 155L515 152L511 160L510 166L508 167L511 171L513 169L517 169L519 171L521 168L525 168L532 174L533 178L531 180L527 178L519 180L519 182L516 181L511 188L507 190L504 189L497 195L491 192L487 193L485 197L488 202L486 205L484 205L474 213L461 213L446 219L446 217L443 218L432 215L430 212L414 212L404 210z"/><path class="leaflet-interactive" stroke="#3388ff" stroke-opacity="0" stroke-width="3" stroke-linecap="round" stroke-linejoin="round" fill="#eee" fill-opacity="0.5" fill-rule="evenodd" d="M554 233L558 232L562 227L566 225L566 221L564 219L564 215L561 208L559 210L559 208L556 205L554 209L553 208L550 211L547 210L544 213L543 212L538 214L534 218L531 213L529 215L530 220L527 225L531 227L533 231L535 231L538 228L538 226L540 226L539 225L546 226L545 231L542 232L541 235L543 237L540 240L545 239L544 238L545 239L548 235L554 233zM549 237L548 236L549 237zM547 237L547 237zM549 237L549 237zM549 238L549 238zM551 235L551 235zM548 237L548 237zM538 228L538 228zM551 236L551 235zM552 239L552 238zM555 233L555 233z"/><path class="leaflet-interactive" stroke="#3388ff" stroke-opacity="0" stroke-width="3" stroke-linecap="round" stroke-linejoin="round" fill="#eee" fill-opacity="0.5" fill-rule="evenodd" d="M588 213L590 209L592 209L594 213L593 210L595 210L598 206L595 205L592 200L584 204L581 197L580 200L578 200L576 197L577 196L575 196L572 191L569 192L562 188L559 189L556 186L557 184L555 182L552 183L549 186L550 187L548 185L544 185L543 187L545 187L547 199L551 197L554 202L554 204L552 204L559 208L559 210L561 208L564 215L564 219L566 221L566 225L568 225L572 218L574 218L574 220L580 221L581 220L579 216L585 216L586 213L588 213z"/><path class="leaflet-interactive" stroke="#3388ff" stroke-opacity="0" stroke-width="3" stroke-linecap="round" stroke-linejoin="round" fill="#eee" fill-opacity="0.5" fill-rule="evenodd" d="M554 183L555 182L557 184L557 188L562 188L568 192L571 191L574 193L573 194L577 196L576 197L579 200L579 198L582 197L584 204L592 200L593 203L597 205L598 200L596 194L602 190L607 193L608 192L610 186L613 183L615 175L614 174L618 170L616 168L620 164L616 164L604 170L597 171L594 167L595 164L593 160L591 160L587 155L586 156L584 154L581 155L577 153L577 149L575 147L576 146L573 141L573 137L571 135L571 131L568 125L564 121L561 122L556 118L547 118L543 120L544 123L540 127L543 128L543 130L547 128L549 130L551 139L560 139L563 136L566 138L568 142L563 151L564 156L560 160L560 166L559 167L558 164L547 173L551 179L553 177L552 176L554 178L552 180L551 179L551 181L554 183z"/><path class="leaflet-interactive" stroke="#3388ff" stroke-opacity="0" stroke-width="3" stroke-linecap="round" stroke-linejoin="round" fill="#eee" fill-opacity="0.5" fill-rule="evenodd" d="M539 294L540 296L545 296L545 294L542 291L540 291L539 294zM545 290L540 289L542 291L545 291zM544 292L543 291L544 292zM544 292L546 293L544 292zM543 291L543 291zM545 293L545 293zM544 293L545 293z"/><path class="leaflet-interactive" stroke="#3388ff" stroke-opacity="0" stroke-width="3" stroke-linecap="round" stroke-linejoin="round" fill="#eee" fill-opacity="0.5" fill-rule="evenodd" d="M518 270L515 267L513 269L523 277L522 280L523 279L525 283L527 283L527 281L529 283L528 285L527 284L525 286L528 293L529 292L537 296L540 293L540 289L545 290L544 287L542 287L542 285L539 284L539 280L536 273L532 271L529 268L529 266L523 272L522 269L520 271L518 270z"/><path class="leaflet-interactive" stroke="#3388ff" stroke-opacity="0" stroke-width="3" stroke-linecap="round" stroke-linejoin="round" fill="#eee" fill-opacity="0.5" fill-rule="evenodd" d="M525 312L527 312L527 317L530 318L532 316L532 318L536 318L536 320L538 315L540 315L539 314L543 312L543 306L545 306L545 302L539 294L537 296L532 293L531 297L530 296L530 298L527 299L527 303L523 306L525 312zM546 301L547 300L545 300L546 301zM546 300L546 300zM546 303L546 303zM547 296L548 296zM546 299L546 299zM547 299L547 299zM545 306L545 306zM547 302L548 301L547 302zM547 298L547 298zM544 309L544 309zM547 302L547 302zM544 307L544 307zM541 316L541 316zM545 296L546 297L545 296zM544 311L544 311zM546 303L546 303zM548 301L548 301zM548 297L548 297zM544 311L544 311zM545 300L545 300zM547 301L547 301zM544 301L544 301zM540 317L540 317zM545 306L545 306zM545 303L545 303zM545 300L545 300zM545 299L545 299zM546 301L546 301zM547 303L546 303zM540 315L540 315zM549 300L549 300zM547 299L547 299zM547 302L547 302zM549 296L549 296zM540 314L540 314zM540 314L540 314zM548 301L548 301zM550 296L550 296zM546 301L546 301zM545 301L545 301zM540 314L540 314zM548 301L548 301zM546 301L546 301z"/><path class="leaflet-interactive" stroke="#3388ff" stroke-opacity="0" stroke-width="3" stroke-linecap="round" stroke-linejoin="round" fill="#eee" fill-opacity="0.5" fill-rule="evenodd" d="M514 274L515 275L512 276L510 274L508 275L509 276L507 280L505 280L505 282L508 285L509 284L511 287L507 291L511 295L510 298L512 302L514 302L514 300L516 304L518 301L524 305L527 302L527 300L530 299L532 294L530 292L527 293L527 291L524 288L526 284L529 283L527 281L527 283L525 283L524 280L522 280L523 277L514 270L512 270L514 274zM527 291L527 291zM515 303L515 303zM508 285L508 285z"/><path class="leaflet-interactive" stroke="#3388ff" stroke-opacity="0" stroke-width="3" stroke-linecap="round" stroke-linejoin="round" fill="#eee" fill-opacity="0.5" fill-rule="evenodd" d="M528 333L527 332L529 332L529 330L533 330L531 330L533 325L532 323L534 323L533 324L536 319L531 316L529 318L527 316L527 312L525 312L517 316L518 319L514 322L514 326L511 329L510 334L514 336L515 335L516 340L518 342L523 338L523 336L526 336L526 334L528 333zM525 336L524 337L525 336zM531 332L531 332zM531 329L531 329zM534 326L533 325zM524 337L524 337zM533 322L533 322zM523 336L523 336zM533 326L533 326zM532 326L531 326zM534 324L534 323zM532 329L532 329zM532 323L533 323zM534 323L534 323zM536 321L535 321zM535 322L535 322zM532 323L532 323z"/><path class="leaflet-interactive" stroke="#3388ff" stroke-opacity="0" stroke-width="3" stroke-linecap="round" stroke-linejoin="round" fill="#eee" fill-opacity="0.5" fill-rule="evenodd" d="M523 305L518 302L516 304L514 300L514 302L508 302L504 304L505 305L501 305L499 307L501 311L497 317L499 319L499 325L501 325L499 330L504 331L500 335L501 336L505 336L507 334L509 336L510 335L512 327L514 326L513 325L517 317L525 312L522 306L523 305z"/><path class="leaflet-interactive" stroke="#3388ff" stroke-opacity="0" stroke-width="3" stroke-linecap="round" stroke-linejoin="round" fill="#eee" fill-opacity="0.5" fill-rule="evenodd" d="M513 270L513 268L516 267L518 271L522 269L523 272L529 266L530 267L535 260L534 259L537 260L539 256L547 254L549 250L543 250L538 247L535 248L532 252L530 252L528 250L530 247L527 245L525 246L523 244L521 244L519 247L515 247L507 256L507 262L511 260L504 266L509 270L513 270zM538 246L538 247zM538 246L538 246zM539 257L539 257zM538 245L538 245zM539 243L539 243zM535 262L535 262zM537 246L537 246zM538 244L538 244zM542 249L542 249zM542 249L542 249zM542 249L542 249zM508 261L508 261z"/><path class="leaflet-interactive" stroke="#3388ff" stroke-opacity="0" stroke-width="3" stroke-linecap="round" stroke-linejoin="round" fill="#eee" fill-opacity="0.5" fill-rule="evenodd" d="M492 285L498 285L500 289L507 292L508 291L511 287L510 284L506 284L505 281L510 274L512 276L515 275L514 272L512 272L512 270L508 270L506 267L504 267L511 260L507 262L508 259L505 260L499 258L495 265L489 265L489 267L479 271L483 278L482 279L486 284L490 286L492 285zM498 286L498 286z"/><path class="leaflet-interactive" stroke="#3388ff" stroke-opacity="0" stroke-width="3" stroke-linecap="round" stroke-linejoin="round" fill="#eee" fill-opacity="0.5" fill-rule="evenodd" d="M483 280L474 279L476 281L475 282L478 283L474 285L474 289L478 293L478 295L476 295L473 298L470 297L468 299L468 303L469 302L471 304L470 305L472 305L472 307L474 303L480 303L481 300L490 304L494 302L493 303L495 305L497 302L498 307L501 305L505 305L504 304L508 302L512 302L510 298L511 295L508 292L500 289L498 285L488 285L483 280zM472 297L472 297zM483 280L483 280zM492 285L492 285zM493 302L493 302z"/><path class="leaflet-interactive" stroke="#3388ff" stroke-opacity="0" stroke-width="3" stroke-linecap="round" stroke-linejoin="round" fill="#eee" fill-opacity="0.5" fill-rule="evenodd" d="M488 335L489 332L493 334L495 330L499 330L501 326L499 326L500 323L499 318L497 318L497 316L501 312L497 306L497 302L494 305L493 302L491 304L487 301L486 302L480 300L479 303L477 302L473 304L472 309L474 317L472 317L470 320L474 320L473 325L476 328L477 325L477 327L479 327L482 324L484 328L485 327L482 333L483 334L485 332L486 335L488 334zM474 322L474 322z"/><path class="leaflet-interactive" stroke="#3388ff" stroke-opacity="0" stroke-width="3" stroke-linecap="round" stroke-linejoin="round" fill="#eee" fill-opacity="0.5" fill-rule="evenodd" d="M497 350L498 347L500 349L509 346L512 347L517 342L517 338L515 336L516 335L510 333L509 336L507 334L505 336L501 336L500 335L504 331L503 330L495 330L493 334L489 332L487 338L488 339L485 342L485 346L475 354L476 363L480 361L478 357L481 355L482 356L494 351L495 352L497 350zM517 343L517 343zM493 353L492 354L493 353zM491 354L492 353L491 354zM501 352L501 351zM479 357L480 356L479 357zM491 354L491 354zM480 357L478 358L480 357zM498 352L498 352zM498 352L498 352zM495 353L495 352zM499 349L498 349zM501 352L501 352zM500 352L500 352zM515 359L516 359zM494 353L494 352zM479 360L479 360zM480 358L480 358zM480 362L480 362zM511 357L511 357zM510 358L511 358zM510 347L510 347zM510 347L510 347z"/><path class="leaflet-interactive" stroke="#3388ff" stroke-opacity="0" stroke-width="3" stroke-linecap="round" stroke-linejoin="round" fill="#eee" fill-opacity="0.5" fill-rule="evenodd" d="M474 327L471 328L471 330L470 329L465 332L462 332L461 329L460 332L459 331L455 333L455 335L451 333L445 335L449 337L449 339L455 339L455 341L452 344L454 346L459 347L457 349L458 352L465 355L475 355L477 352L479 352L479 350L481 350L481 348L485 346L485 342L488 339L488 335L486 335L485 332L483 334L482 333L485 328L483 324L478 327L474 327zM449 333L449 334zM472 358L472 358z"/><path class="leaflet-interactive" stroke="#3388ff" stroke-opacity="0" stroke-width="3" stroke-linecap="round" stroke-linejoin="round" fill="#eee" fill-opacity="0.5" fill-rule="evenodd" d="M477 364L473 364L469 368L469 372L471 374L474 375L480 372L480 369L483 366L481 363L478 363zM489 458L489 458zM495 434L496 433zM488 458L488 458zM485 381L485 381zM521 393L521 392zM490 458L490 457zM487 387L487 386zM486 386L486 386zM499 437L503 435L499 436zM499 429L500 430L499 429zM499 430L499 430zM488 386L488 386zM487 385L487 385zM489 429L489 429zM498 438L499 438zM501 430L501 430zM489 382L490 382zM503 421L504 421zM510 424L510 424zM503 423L503 423zM498 436L499 436zM474 438L475 437L474 438zM512 429L513 429zM491 388L492 387L491 388zM491 429L492 429zM502 418L503 418zM490 386L491 386zM514 421L514 420zM490 382L490 382zM485 385L486 385zM508 423L508 423zM503 433L504 433zM502 434L503 433zM506 432L507 433L506 432zM499 434L499 434zM508 426L508 426zM514 428L514 428zM497 429L498 429zM503 417L504 417zM503 415L503 414zM505 418L505 418zM486 385L486 385zM499 429L499 430zM476 435L477 435zM515 414L515 414zM486 384L487 384zM491 385L491 385zM487 387L487 387zM499 423L499 422zM504 433L504 434zM514 424L514 424zM507 422L507 422zM516 420L516 420zM504 387L504 387zM511 427L511 427zM498 427L498 427zM503 437L504 437zM502 419L503 418zM521 418L521 418zM501 421L501 421zM503 414L504 414zM515 420L515 420zM479 434L480 433L479 434zM485 431L485 431zM507 431L507 431zM495 434L495 434zM500 417L500 417zM518 421L518 421zM501 388L501 387zM480 434L480 434zM508 432L508 431zM486 437L486 437zM486 430L487 431L486 430zM479 435L480 435zM490 429L490 429zM514 424L514 424zM488 434L488 434zM502 390L502 390zM505 417L505 417zM500 388L500 388zM511 422L511 422zM518 419L518 419zM504 439L504 439zM493 429L493 429zM486 436L486 436zM489 430L490 429zM491 447L491 447zM503 429L503 429zM504 434L505 434zM494 432L494 432zM497 440L497 440zM515 386L515 386zM519 422L519 422zM494 367L494 367zM502 388L502 387zM499 369L498 369zM492 451L492 451zM486 435L486 435zM490 429L490 429zM493 435L493 435zM491 448L492 448zM491 448L491 448zM507 400L507 400zM497 421L497 421zM499 391L499 391zM493 452L493 451zM491 451L492 451zM490 448L490 448zM489 383L489 383zM489 390L489 389zM492 449L492 449zM491 447L491 447zM495 444L495 444zM512 425L512 425zM505 437L505 437zM486 435L486 435zM499 389L499 389zM505 388L505 388zM515 428L515 428zM492 385L492 385zM484 364L484 364zM510 420L510 420zM518 419L518 419zM492 386L492 386zM510 420L510 420zM491 425L491 425zM503 390L503 390zM518 417L518 417zM521 417L521 417zM500 426L501 426zM504 424L504 425zM491 446L491 446z"/><path class="leaflet-interactive" stroke="#3388ff" stroke-opacity="0" stroke-width="3" stroke-linecap="round" stroke-linejoin="round" fill="#eee" fill-opacity="0.5" fill-rule="evenodd" d="M456 311L458 309L458 311L461 308L462 309L463 306L465 308L466 307L468 309L467 310L469 310L469 312L470 311L470 313L472 313L473 308L472 305L470 305L471 304L469 302L468 303L468 299L470 297L473 298L476 295L477 296L478 293L468 286L466 294L464 296L463 295L463 297L459 301L454 298L452 300L453 301L450 304L454 308L456 308L456 310zM472 297L472 297zM452 300L452 300zM472 297L472 297zM460 301L460 301z"/><path class="leaflet-interactive" stroke="#3388ff" stroke-opacity="0" stroke-width="3" stroke-linecap="round" stroke-linejoin="round" fill="#eee" fill-opacity="0.5" fill-rule="evenodd" d="M427 319L426 320L428 324L432 326L437 324L436 319L443 310L445 310L444 311L446 315L448 315L449 313L450 316L454 316L456 314L453 313L452 310L456 310L456 308L454 308L450 304L454 298L459 301L463 297L462 296L466 294L468 286L465 287L462 284L456 284L454 282L451 282L449 284L446 283L444 281L444 277L440 275L439 276L437 272L433 274L434 277L431 280L430 277L429 280L426 279L427 282L425 284L421 284L420 281L418 283L415 280L413 280L411 274L408 273L405 276L407 278L405 282L411 287L411 289L414 292L412 292L415 301L415 311L416 312L418 308L421 312L420 313L422 315L424 314L424 316L427 319zM456 300L456 300zM460 300L460 300zM452 300L452 300z"/><path class="leaflet-interactive" stroke="#3388ff" stroke-opacity="0" stroke-width="3" stroke-linecap="round" stroke-linejoin="round" fill="#eee" fill-opacity="0.5" fill-rule="evenodd" d="M473 311L471 313L467 309L467 307L464 308L464 306L462 306L461 309L460 308L457 311L457 309L457 311L454 309L452 311L456 314L454 316L451 315L450 318L442 318L440 320L441 323L446 324L444 329L447 332L446 335L450 333L455 335L455 333L459 331L460 332L461 329L462 332L466 332L466 330L469 331L469 329L472 330L471 329L473 329L474 320L470 320L474 316L473 311zM474 321L474 321zM474 322L474 322z"/><path class="leaflet-interactive" stroke="#3388ff" stroke-opacity="0" stroke-width="3" stroke-linecap="round" stroke-linejoin="round" fill="#eee" fill-opacity="0.5" fill-rule="evenodd" d="M450 316L449 313L447 315L445 314L445 310L441 311L442 312L440 312L440 315L436 319L437 324L431 326L428 323L425 316L422 315L418 309L416 311L417 312L415 312L415 306L414 309L412 309L413 312L412 313L410 311L409 314L410 317L411 316L413 318L413 328L411 328L407 333L406 339L414 339L412 339L412 341L414 345L415 344L414 345L417 346L415 350L420 351L422 355L426 353L426 355L430 357L430 349L434 347L437 349L439 347L447 347L448 344L452 344L455 341L455 339L449 339L450 338L445 335L447 333L445 329L447 324L445 322L441 322L443 318L450 318L450 316z"/><path class="leaflet-interactive" stroke="#3388ff" stroke-opacity="0" stroke-width="3" stroke-linecap="round" stroke-linejoin="round" fill="#eee" fill-opacity="0.5" fill-rule="evenodd" d="M361 260L359 258L349 257L341 259L340 262L334 262L329 265L325 265L322 262L320 262L316 266L312 264L308 265L304 271L300 271L301 272L298 274L302 282L301 285L299 285L299 283L297 285L297 287L300 290L300 294L306 295L306 297L313 301L314 298L316 298L326 306L329 305L331 309L336 310L335 311L341 315L341 313L343 315L343 313L347 315L357 314L356 317L358 319L359 315L362 312L372 315L372 317L374 317L376 321L383 321L395 312L399 312L403 316L406 311L410 313L410 311L412 313L412 309L414 309L415 306L415 301L410 285L406 284L404 286L405 287L401 289L402 290L398 288L399 290L396 290L394 286L393 287L393 285L389 283L385 285L364 278L362 276L363 275L361 275L361 260z"/><path class="leaflet-interactive" stroke="#3388ff" stroke-opacity="0" stroke-width="3" stroke-linecap="round" stroke-linejoin="round" fill="#eee" fill-opacity="0.5" fill-rule="evenodd" d="M479 270L479 254L481 250L480 245L484 237L483 234L480 237L478 235L478 237L475 238L475 240L471 243L470 248L467 249L463 247L461 249L461 253L469 257L469 265L464 265L463 268L458 267L456 271L458 271L456 275L457 276L453 278L453 282L451 281L452 283L460 283L465 287L468 286L473 290L475 288L474 285L478 283L475 282L476 281L474 279L481 280L483 278L480 275L481 274L479 270zM483 278L483 278zM454 283L454 283z"/><path class="leaflet-interactive" stroke="#3388ff" stroke-opacity="0" stroke-width="3" stroke-linecap="round" stroke-linejoin="round" fill="#eee" fill-opacity="0.5" fill-rule="evenodd" d="M457 262L456 265L453 264L453 262L450 261L450 254L447 251L446 252L446 250L439 247L439 243L444 239L442 235L437 238L430 238L431 241L425 239L425 237L422 234L417 232L421 229L421 225L418 224L413 227L410 227L410 224L406 221L408 219L404 210L399 211L397 213L398 215L396 218L392 218L384 226L380 227L376 237L380 237L386 241L387 240L389 243L395 243L398 245L401 244L401 242L403 242L402 239L404 237L409 240L413 238L418 243L420 244L420 242L427 247L432 248L431 249L436 256L437 261L435 261L436 264L435 263L431 269L433 272L432 273L428 273L425 271L424 272L428 277L429 276L429 278L431 278L431 280L434 277L432 274L436 272L438 276L439 275L444 277L444 281L446 283L451 283L451 281L452 282L454 280L452 278L457 277L457 267L464 268L465 265L469 265L469 257L458 252L456 256L459 259L459 261L457 262zM454 264L454 264zM436 258L436 258zM454 264L454 264zM457 262L457 262z"/><path class="leaflet-interactive" stroke="#3388ff" stroke-opacity="0" stroke-width="3" stroke-linecap="round" stroke-linejoin="round" fill="#eee" fill-opacity="0.5" fill-rule="evenodd" d="M436 258L434 253L435 252L431 248L426 247L424 244L420 242L421 244L419 243L414 238L411 238L409 240L403 237L403 241L399 245L396 243L390 243L388 240L386 241L381 239L381 237L364 242L364 244L366 244L366 248L370 252L367 255L369 257L368 260L363 258L363 260L360 261L362 261L360 265L360 268L362 268L361 275L363 275L362 276L367 280L371 280L385 285L389 283L393 285L392 286L394 286L396 290L398 290L398 288L402 290L401 289L405 287L404 286L406 284L405 281L407 279L405 275L408 273L412 276L413 280L415 280L418 283L420 281L421 284L425 284L427 282L426 279L428 280L430 279L430 277L429 278L429 276L428 277L424 273L433 272L431 268L433 264L436 263L436 258z"/><path class="leaflet-interactive" stroke="#3388ff" stroke-opacity="0" stroke-width="3" stroke-linecap="round" stroke-linejoin="round" fill="#eee" fill-opacity="0.5" fill-rule="evenodd" d="M461 252L463 246L457 244L460 239L459 236L457 236L454 239L452 248L444 250L446 250L446 252L447 251L450 254L450 260L456 266L456 262L459 261L459 259L456 256L458 254L457 253L461 252zM454 264L454 264zM454 264L454 264z"/><path class="leaflet-interactive" stroke="#3388ff" stroke-opacity="0" stroke-width="3" stroke-linecap="round" stroke-linejoin="round" fill="#eee" fill-opacity="0.5" fill-rule="evenodd" d="M399 211L393 198L392 199L380 192L370 192L367 189L369 184L369 178L364 170L358 168L352 163L352 161L350 161L351 158L345 158L345 162L343 164L339 164L338 166L338 176L329 177L324 174L319 186L321 190L315 190L306 193L308 195L308 199L311 206L308 209L310 209L307 211L308 214L304 218L303 217L293 224L290 223L286 227L286 229L282 229L281 227L277 228L274 231L273 230L269 237L272 242L275 241L277 243L276 244L278 250L275 251L275 253L279 253L283 256L284 261L291 264L295 264L296 269L301 272L300 271L304 271L309 264L315 266L321 262L323 264L330 265L334 262L340 262L341 259L349 257L368 260L369 257L367 255L370 252L366 248L366 244L364 244L364 242L376 239L380 227L385 225L391 218L393 218L393 220L398 216L398 211z"/><path class="leaflet-interactive" stroke="#3388ff" stroke-opacity="0" stroke-width="3" stroke-linecap="round" stroke-linejoin="round" fill="#eee" fill-opacity="0.5" fill-rule="evenodd" d="M536 349L537 352L539 352L539 348L542 345L545 333L543 331L537 336L534 341L535 348zM560 327L560 327zM553 328L553 328zM532 342L531 342zM555 327L555 327zM531 342L531 342zM531 343L531 343zM531 341L531 341zM545 329L546 329zM542 347L542 347zM542 351L543 351zM546 330L546 330zM530 344L531 344zM536 350L536 349z"/><path class="leaflet-interactive" stroke="#3388ff" stroke-opacity="0" stroke-width="3" stroke-linecap="round" stroke-linejoin="round" fill="#eee" fill-opacity="0.5" fill-rule="evenodd" d="M500 349L499 350L502 349L500 349zM500 350L500 350zM501 349L501 349zM501 349L501 349zM501 349L501 349zM501 350L501 350zM501 349L501 349zM502 350L502 350zM501 350L501 350z"/><path class="leaflet-interactive" stroke="#3388ff" stroke-opacity="0" stroke-width="3" stroke-linecap="round" stroke-linejoin="round" fill="#eee" fill-opacity="0.5" fill-rule="evenodd" d="M497 351L497 351zM497 350L497 350z"/><path class="leaflet-interactive" stroke="#3388ff" stroke-opacity="0" stroke-width="3" stroke-linecap="round" stroke-linejoin="round" fill="#eee" fill-opacity="0.5" fill-rule="evenodd" d="M548 343L550 336L548 343zM540 359L545 354L544 353L540 359zM531 376L534 370L531 376zM528 393L528 388L528 393zM526 416L525 418L528 411L527 413zM508 439L512 434L508 439zM490 460L487 461L493 459L491 460zM467 445L467 440L467 445zM478 415L477 416L479 410L478 414zM476 392L473 387L475 391z"/></g></svg>